<?xml version="1.0" encoding="UTF-8"?>
<svg version="1.1" xmlns="http://www.w3.org/2000/svg" width="66" height="95">
<path d="M0 0 C2.75 -0.375 2.75 -0.375 6 0 C8.375 3 8.375 3 10 6 C10.556875 5.67 11.11375 5.34 11.6875 5 C14.4519291 3.8045712 16.01427305 3.56306435 19 4 C21.8125 5.25 21.8125 5.25 24 8 C25.3494613 15.80593564 23.80182971 22.19029698 20 29 C19.67 29.66 19.34 30.32 19 31 C18.34 31 17.68 31 17 31 C17 31.66 17 32.32 17 33 C10.25 36.875 10.25 36.875 8 38 C8.33 39.65 8.66 41.3 9 43 C9.60134766 42.31164063 9.60134766 42.31164063 10.21484375 41.609375 C14.48918124 36.99580438 18.78166314 33.5226208 25 32 C28.0625 32.75 28.0625 32.75 30 34 C29.46274105 37.37705625 28.88935377 40.696686 28 44 C27.34 44 26.68 44 26 44 C25.835 44.804375 25.67 45.60875 25.5 46.4375 C23.0946638 52.15017347 18.97033206 57.63877286 13.23828125 60.265625 C12.49964844 60.50796875 11.76101562 60.7503125 11 61 C11 61.66 11 62.32 11 63 C6.0658593 64.64471357 2.05267401 64.83508502 -2.74609375 62.8828125 C-5.20393591 61.64866197 -7.61472294 60.36860159 -10 59 C-10 58.34 -10 57.68 -10 57 C-10.66 57 -11.32 57 -12 57 C-15.18542568 52.00949976 -17.68092141 47.02567649 -18 41 C-17.34 40.34 -16.68 39.68 -16 39 C-11.03335012 39.28653749 -7.23785669 40.39949703 -3 43 C-2.01 44.32 -1.02 45.64 0 47 C0.33 43.37 0.66 39.74 1 36 C0.175 35.979375 -0.65 35.95875 -1.5 35.9375 C-6.8816486 34.49598698 -11.38051531 30.79440495 -14.1953125 25.9375 C-16.31063661 20.84429243 -16.89946522 14.44676162 -16 9 C-13.75 5.875 -13.75 5.875 -11 4 C-8.875 4.125 -8.875 4.125 -7 5 C-6.01 5.33 -5.02 5.66 -4 6 C-3.67 6.66 -3.34 7.32 -3 8 C-2.690625 7.05125 -2.38125 6.1025 -2.0625 5.125 C-1 2 -1 2 0 0 Z " fill="#EBB0B8" transform="translate(30,18)"/>
<path d="M0 0 C0.639375 0.4125 1.27875 0.825 1.9375 1.25 C1.40024105 4.62705625 0.82685377 7.946686 -0.0625 11.25 C-0.7225 11.25 -1.3825 11.25 -2.0625 11.25 C-2.2275 12.054375 -2.3925 12.85875 -2.5625 13.6875 C-4.9678362 19.40017347 -9.09216794 24.88877286 -14.82421875 27.515625 C-15.93216797 27.87914062 -15.93216797 27.87914062 -17.0625 28.25 C-17.0625 28.91 -17.0625 29.57 -17.0625 30.25 C-21.9966407 31.89471357 -26.00982599 32.08508502 -30.80859375 30.1328125 C-33.26643591 28.89866197 -35.67722294 27.61860159 -38.0625 26.25 C-38.0625 25.59 -38.0625 24.93 -38.0625 24.25 C-38.7225 24.25 -39.3825 24.25 -40.0625 24.25 C-43.24792568 19.25949976 -45.74342141 14.27567649 -46.0625 8.25 C-45.4025 7.59 -44.7425 6.93 -44.0625 6.25 C-39.09585012 6.53653749 -35.30035669 7.64949703 -31.0625 10.25 C-30.0725 11.57 -29.0825 12.89 -28.0625 14.25 C-27.7325 10.62 -27.4025 6.99 -27.0625 3.25 C-25.0825 3.25 -23.1025 3.25 -21.0625 3.25 C-20.4025 5.56 -19.7425 7.87 -19.0625 10.25 C-18.46115234 9.56164062 -18.46115234 9.56164062 -17.84765625 8.859375 C-13.17831281 3.81944875 -7.29866683 -1.78742861 0 0 Z " fill="#7DA36C" transform="translate(58.0625,50.75)"/>
<path d="M0 0 C-0.53725895 3.37705625 -1.11064623 6.696686 -2 10 C-2.66 10 -3.32 10 -4 10 C-4.165 10.804375 -4.33 11.60875 -4.5 12.4375 C-6.9053362 18.15017347 -11.02966794 23.63877286 -16.76171875 26.265625 C-17.86966797 26.62914062 -17.86966797 26.62914062 -19 27 C-19 27.66 -19 28.32 -19 29 C-21.75078884 29.91692961 -23.35948913 30.10886083 -26.1875 30.0625 C-27.445625 30.041875 -28.70375 30.02125 -30 30 C-29.67 29.34 -29.34 28.68 -29 28 C-26.03 28 -23.06 28 -20 28 C-20 27.34 -20 26.68 -20 26 C-19.34 26 -18.68 26 -18 26 C-17.67 25.01 -17.34 24.02 -17 23 C-16.175 22.731875 -15.35 22.46375 -14.5 22.1875 C-13.675 21.795625 -12.85 21.40375 -12 21 C-11.61866701 19.0085944 -11.28674418 17.00720923 -11 15 C-9.0625 13.375 -9.0625 13.375 -7 12 C-5.7483533 9.91665365 -5.7483533 9.91665365 -5 8 C-4.34 8 -3.68 8 -3 8 C-3.33 5.69 -3.66 3.38 -4 1 C-6.64 1.33 -9.28 1.66 -12 2 C-11 0 -11 0 -8.25 -1.25 C-4.60741086 -2.09059749 -3.24128426 -1.71597402 0 0 Z " fill="#98B08D" transform="translate(60,52)"/>
<path d="M0 0 C0.99 0.33 1.98 0.66 3 1 C3 3.31 3 5.62 3 8 C2.01 8.495 2.01 8.495 1 9 C0.690625 9.99 0.38125 10.98 0.0625 12 C-0.288125 12.99 -0.63875 13.98 -1 15 C-1.99 15.33 -2.98 15.66 -4 16 C-4.33 15.01 -4.66 14.02 -5 13 C-5.680625 12.34 -6.36125 11.68 -7.0625 11 C-9 9 -9 9 -9 6 C-6.75 4.5 -6.75 4.5 -4 3 C-3.29875 2.4225 -2.5975 1.845 -1.875 1.25 C-0.946875 0.63125 -0.946875 0.63125 0 0 Z " fill="#78A166" transform="translate(54,52)"/>
<path d="M0 0 C0.61875 0.28875 1.2375 0.5775 1.875 0.875 C2.865 1.205 3.855 1.535 4.875 1.875 C6.0625 4.4375 6.0625 4.4375 6.875 6.875 C6.111875 6.565625 5.34875 6.25625 4.5625 5.9375 C2.68710323 5.19606407 0.78815348 4.51271783 -1.125 3.875 C-3.31617773 4.69701984 -3.31617773 4.69701984 -3.9765625 6.94140625 C-4.35941406 8.17697266 -4.35941406 8.17697266 -4.75 9.4375 C-5.01039062 10.26378906 -5.27078125 11.09007812 -5.5390625 11.94140625 C-5.73242188 12.57949219 -5.92578125 13.21757813 -6.125 13.875 C-6.455 13.875 -6.785 13.875 -7.125 13.875 C-7.60974869 8.93056335 -7.86185155 5.89840493 -4.875 1.75 C-2.125 -0.125 -2.125 -0.125 0 0 Z " fill="#E5BFC6" transform="translate(21.125,22.125)"/>
<path d="M0 0 C1.98 0 3.96 0 6 0 C6.66 3.3 7.32 6.6 8 10 C6.68 9.34 5.36 8.68 4 8 C3.375 5.4375 3.375 5.4375 3 3 C2.34 2.67 1.68 2.34 1 2 C1 5.3 1 8.6 1 12 C0.67 12 0.34 12 0 12 C0 8.04 0 4.08 0 0 Z " fill="#92A883" transform="translate(31,54)"/>
<path d="M0 0 C-0.53400897 3.91606575 -1.19669467 6.39338934 -3 10 C-3.33 7.03 -3.66 4.06 -4 1 C-6.64 1.33 -9.28 1.66 -12 2 C-11 0 -11 0 -8.25 -1.25 C-4.60741086 -2.09059749 -3.24128426 -1.71597402 0 0 Z " fill="#ACC0A4" transform="translate(60,52)"/>
<path d="M0 0 C3.68268739 0.49766046 5.65028767 1.06285959 8 4 C8.33 4.66 8.66 5.32 9 6 C9.99 6 10.98 6 12 6 C12.33 6.99 12.66 7.98 13 9 C9.33118845 8.29445932 6.29549466 6.72264494 3 5 C3 4.34 3 3.68 3 3 C2.34 3 1.68 3 1 3 C0.67 2.01 0.34 1.02 0 0 Z " fill="#A0B796" transform="translate(17,72)"/>
<path d="M0 0 C2.38564077 0.57584432 4.66682784 1.22227595 7 2 C8.1875 4.5625 8.1875 4.5625 9 7 C4.2962963 5.51461988 4.2962963 5.51461988 2.8125 2.9375 C2.544375 2.298125 2.27625 1.65875 2 1 C1.34 0.67 0.68 0.34 0 0 Z " fill="#ECCAD3" transform="translate(19,22)"/>
<path d="M0 0 C3.39914975 1.13304992 4.05254451 2.12518475 6 5 C5.67 5.66 5.34 6.32 5 7 C4.34 7 3.68 7 3 7 C3 6.34 3 5.68 3 5 C2.01 4.67 1.02 4.34 0 4 C0 2.68 0 1.36 0 0 Z " fill="#9AB58A" transform="translate(24,60)"/>
<path d="M0 0 C-2 2 -2 2 -5 4 C-7.1875 3.625 -7.1875 3.625 -9 3 C-6.38997624 -0.48003168 -4.1689578 -0.27793052 0 0 Z " fill="#91B388" transform="translate(52,54)"/>
</svg>
