<?xml version="1.0" encoding="UTF-8"?>
<svg version="1.1" xmlns="http://www.w3.org/2000/svg" width="95" height="104">
<path d="M0 0 C1.24330078 -0.00708984 2.48660156 -0.01417969 3.76757812 -0.02148438 C13.70684632 0.0483969 13.70684632 0.0483969 17.4375 3.4375 C17.1075 4.05625 16.7775 4.675 16.4375 5.3125 C15.18371425 7.97679471 15.3398215 9.01422649 16 11.875 C16.4375 14.4375 16.4375 14.4375 15.4375 17.4375 C16.4275 18.9225 16.4275 18.9225 17.4375 20.4375 C17.6875 23 17.6875 23 17.4375 25.4375 C16.7775 26.0975 16.1175 26.7575 15.4375 27.4375 C15.27072718 31.02093976 15.27072718 31.02093976 15.4375 34.4375 C12.42946149 35.29774441 9.67442647 35.59497759 6.55078125 35.68359375 C5.61169922 35.71646484 4.67261719 35.74933594 3.70507812 35.78320312 C1.7546569 35.84379123 -0.19586765 35.90115008 -2.14648438 35.95507812 C-7.51308159 36.14896337 -12.48481475 36.67079887 -17.69238281 38.00756836 C-20.01114763 38.5406421 -22.19344687 38.59034214 -24.5625 38.4375 C-25.56699686 42.75683651 -25.89517768 45.54970387 -23.5625 49.4375 C-21.52144361 50.32443303 -21.52144361 50.32443303 -19.5625 50.4375 C-20.5625 53.4375 -20.5625 53.4375 -22.5625 54.4375 C-23.69600534 56.45419827 -23.69600534 56.45419827 -24.5625 58.4375 C-26.2125 58.4375 -27.8625 58.4375 -29.5625 58.4375 C-29.8925 56.7875 -30.2225 55.1375 -30.5625 53.4375 C-32.38892271 52.66755501 -32.38892271 52.66755501 -34.5625 52.4375 C-36.28661806 53.6375387 -36.28661806 53.6375387 -37.8125 55.375 C-40.55614343 57.85125445 -41.53107869 58.43069205 -45.3125 59.25 C-51.08628708 58.82946826 -56.19147681 54.98895634 -60.5625 51.4375 C-60.5625 50.7775 -60.5625 50.1175 -60.5625 49.4375 C-61.2225 49.4375 -61.8825 49.4375 -62.5625 49.4375 C-64.03515625 47.828125 -64.03515625 47.828125 -65.625 45.6875 C-66.15222656 44.99140625 -66.67945312 44.2953125 -67.22265625 43.578125 C-69.85307565 39.37558905 -69.89417461 35.32970055 -69.5625 30.4375 C-68.07498343 25.97495029 -66.86639941 22.6546603 -62.5625 20.4375 C-61.2425 20.4375 -59.9225 20.4375 -58.5625 20.4375 C-59.8714572 17.31552522 -59.8714572 17.31552522 -62.5625 15.4375 C-62.5625 14.1175 -62.5625 12.7975 -62.5625 11.4375 C-61.2425 11.4375 -59.9225 11.4375 -58.5625 11.4375 C-57.9025 9.7875 -57.2425 8.1375 -56.5625 6.4375 C-55.2425 6.7675 -53.9225 7.0975 -52.5625 7.4375 C-52.2325 8.7575 -51.9025 10.0775 -51.5625 11.4375 C-50.5725 11.4375 -49.5825 11.4375 -48.5625 11.4375 C-48.2325 12.4275 -47.9025 13.4175 -47.5625 14.4375 C-48.77734375 16.26171875 -48.77734375 16.26171875 -50.5 18.125 C-51.06589844 18.74761719 -51.63179687 19.37023437 -52.21484375 20.01171875 C-52.65957031 20.48222656 -53.10429688 20.95273437 -53.5625 21.4375 C-52.2425 21.7675 -50.9225 22.0975 -49.5625 22.4375 C-49.335625 21.695 -49.10875 20.9525 -48.875 20.1875 C-47.3035439 16.8949253 -45.56254284 15.46252891 -42.5625 13.4375 C-41.9025 13.4375 -41.2425 13.4375 -40.5625 13.4375 C-40.5625 12.7775 -40.5625 12.1175 -40.5625 11.4375 C-38.67585474 10.33824352 -36.77744795 9.25917482 -34.875 8.1875 C-33.29138672 7.28257813 -33.29138672 7.28257813 -31.67578125 6.359375 C-21.36825157 1.216996 -11.41171731 -0.18867373 0 0 Z " fill="#E9AEB5" transform="translate(73.5625,23.5625)"/>
<path d="M0 0 C1.24330078 -0.00708984 2.48660156 -0.01417969 3.76757812 -0.02148438 C13.70684632 0.0483969 13.70684632 0.0483969 17.4375 3.4375 C16.52176539 5.72683652 15.84737966 7.15185594 13.80078125 8.578125 C10.54942417 9.76043667 7.82649711 9.47401462 4.375 9.3125 C-8.35237905 9.0370733 -21.26419845 11.22869827 -32.1953125 17.98828125 C-35.2285036 19.84523488 -38.39497547 21.15498553 -41.6875 22.48046875 C-43.65180618 23.35564666 -43.65180618 23.35564666 -45.125 25.05078125 C-46.5625 26.4375 -46.5625 26.4375 -49.5625 26.4375 C-50.5625 23.4375 -50.5625 23.4375 -49.4375 20.5 C-47.46996977 17.28636729 -45.68183179 15.51705453 -42.5625 13.4375 C-41.9025 13.4375 -41.2425 13.4375 -40.5625 13.4375 C-40.5625 12.7775 -40.5625 12.1175 -40.5625 11.4375 C-38.67585474 10.33824352 -36.77744795 9.25917482 -34.875 8.1875 C-33.81925781 7.58421875 -32.76351562 6.9809375 -31.67578125 6.359375 C-21.36825157 1.216996 -11.41171731 -0.18867373 0 0 Z " fill="#EE8773" transform="translate(73.5625,23.5625)"/>
<path d="M0 0 C1.30324219 -0.02835938 2.60648438 -0.05671875 3.94921875 -0.0859375 C7.3125 0.375 7.3125 0.375 9.75390625 2.2265625 C11.63379955 4.81789412 11.66055324 6.24252087 11.3125 9.375 C8.07972314 11.29804661 5.79383958 11.58561154 2.05859375 11.46484375 C1.03830078 11.44486328 0.01800781 11.42488281 -1.03320312 11.40429688 C-3.15052943 11.3438753 -5.26773131 11.27889267 -7.38476562 11.20898438 C-13.83489961 11.09185608 -19.26634831 11.7625217 -25.42553711 13.72094727 C-27.6875 14.375 -27.6875 14.375 -30.6875 14.375 C-32.25 11.5625 -32.25 11.5625 -33.6875 8.375 C-33.3575 7.385 -33.0275 6.395 -32.6875 5.375 C-22.45484435 0.96437257 -11.0382881 0.23712348 0 0 Z " fill="#84A66B" transform="translate(79.6875,39.625)"/>
<path d="M0 0 C1.125 4.75 1.125 4.75 0 7 C-3.40181081 8.28264998 -6.72073792 8.03278319 -10.3125 7.9375 C-20.54357991 7.87355575 -30.33745421 8.81605398 -39.92578125 12.46875 C-43.72475662 13.44174558 -47.18047505 12.66690118 -51 12 C-49.51060783 7.53182348 -46.68074369 6.61159627 -42.61328125 4.49609375 C-30.32527003 -0.59180711 -13.00895734 -4.01028008 0 0 Z " fill="#EADD99" transform="translate(89,33)"/>
<path d="M0 0 C0 2.31 0 4.62 0 7 C-3.00803851 7.86024441 -5.76307353 8.15747759 -8.88671875 8.24609375 C-9.82580078 8.27896484 -10.76488281 8.31183594 -11.73242188 8.34570312 C-13.6828431 8.40629123 -15.63336765 8.46365008 -17.58398438 8.51757812 C-22.93587242 8.71093195 -27.89017078 9.22641036 -33.08105469 10.57006836 C-35.73780575 11.16530228 -38.29214443 11.13886439 -41 11 C-40.67 8.36 -40.34 5.72 -40 3 C-29.65183177 -1.08096775 -10.46656669 -5.23328335 0 0 Z " fill="#BFD3CE" transform="translate(89,51)"/>
<path d="M0 0 C2.72923388 -0.0270817 5.45819637 -0.04687847 8.1875 -0.0625 C8.95642578 -0.07087891 9.72535156 -0.07925781 10.51757812 -0.08789062 C14.48526789 -0.10491934 18.12571234 0.01395885 22 1 C20.125 5.875 20.125 5.875 19 7 C16.60240614 7.40501894 14.22273086 7.75408183 11.8125 8.0625 C10.8215332 8.19881836 10.8215332 8.19881836 9.81054688 8.33789062 C-0.59251613 9.70374194 -0.59251613 9.70374194 -4 8 C-4.625 5.9375 -4.625 5.9375 -5 4 C-4.0409375 3.8453125 -4.0409375 3.8453125 -3.0625 3.6875 C-2.381875 3.460625 -1.70125 3.23375 -1 3 C-0.67 2.01 -0.34 1.02 0 0 Z " fill="#F08470" transform="translate(60,25)"/>
<path d="M0 0 C1.32 0.33 2.64 0.66 4 1 C4.33 2.32 4.66 3.64 5 5 C5.99 5 6.98 5 8 5 C8.33 5.99 8.66 6.98 9 8 C7.37660195 9.70884005 5.70680947 11.37446717 4 13 C3.34 13 2.68 13 2 13 C1.67 13.66 1.34 14.32 1 15 C-2 14 -2 14 -3.0625 12 C-3.371875 11.34 -3.68125 10.68 -4 10 C-4.66 9.67 -5.32 9.34 -6 9 C-6 7.68 -6 6.36 -6 5 C-4.68 5 -3.36 5 -2 5 C-1.34 3.35 -0.68 1.7 0 0 Z " fill="#E5D6A1" transform="translate(17,30)"/>
<path d="M0 0 C1.26585938 -0.01611328 2.53171875 -0.03222656 3.8359375 -0.04882812 C5.65738281 -0.04979492 5.65738281 -0.04979492 7.515625 -0.05078125 C8.61680664 -0.05376221 9.71798828 -0.05674316 10.85253906 -0.05981445 C14.04446981 0.35033843 15.40789664 1.16391488 17.75 3.3125 C16.8018738 5.68281549 16.06103322 7.07922508 14 8.625 C10.99827907 9.54219251 8.77230874 8.99938835 5.75 8.3125 C6.74 6.3325 7.73 4.3525 8.75 2.3125 C7.43 2.3125 6.11 2.3125 4.75 2.3125 C4.42 2.9725 4.09 3.6325 3.75 4.3125 C3.75 3.3225 3.75 2.3325 3.75 1.3125 C-1.86 1.3125 -7.47 1.3125 -13.25 1.3125 C-13.58 2.6325 -13.91 3.9525 -14.25 5.3125 C-16.89 4.9825 -19.53 4.6525 -22.25 4.3125 C-22.25 3.6525 -22.25 2.9925 -22.25 2.3125 C-14.84743232 -0.02172674 -7.71903665 -0.01989442 0 0 Z " fill="#EA8A74" transform="translate(73.25,23.6875)"/>
<path d="M0 0 C-1.6415049 3.2830098 -4.82902851 4.27037919 -8 6 C-8 6.99 -8 7.98 -8 9 C-6.68 9.66 -5.36 10.32 -4 11 C-4.61488281 11.25394531 -5.22976562 11.50789063 -5.86328125 11.76953125 C-6.67152344 12.11371094 -7.47976562 12.45789062 -8.3125 12.8125 C-9.11300781 13.14894531 -9.91351563 13.48539063 -10.73828125 13.83203125 C-13.04243144 14.87246185 -13.04243144 14.87246185 -14.60546875 16.63671875 C-16 18 -16 18 -19 18 C-20 15 -20 15 -18.875 12.0625 C-16.90746977 8.84886729 -15.11933179 7.07955453 -12 5 C-11.34 5 -10.68 5 -10 5 C-10 4.34 -10 3.68 -10 3 C-3.375 -1.125 -3.375 -1.125 0 0 Z " fill="#EB8475" transform="translate(43,32)"/>
<path d="M0 0 C0.33 0.66 0.66 1.32 1 2 C1.66 2 2.32 2 3 2 C3 2.66 3 3.32 3 4 C1.35 4 -0.3 4 -2 4 C-2 4.66 -2 5.32 -2 6 C-2.969375 6.28875 -3.93875 6.5775 -4.9375 6.875 C-8.10664203 7.64214682 -8.10664203 7.64214682 -9 10 C-9.66 10 -10.32 10 -11 10 C-11.66 13.96 -12.32 17.92 -13 22 C-15.1723375 17.65532499 -15.40362983 15.76283205 -15 11 C-13.82163496 7.46490489 -12.75225175 4.83285015 -10.25 2.0625 C-7.12748831 0.58798059 -4.40782944 0.87140266 -1 1 C-0.67 0.67 -0.34 0.34 0 0 Z " fill="#D9AEB1" transform="translate(19,43)"/>
<path d="M0 0 C0 0.33 0 0.66 0 1 C-0.92683594 1.06058594 -1.85367188 1.12117188 -2.80859375 1.18359375 C-4.60490234 1.30927734 -4.60490234 1.30927734 -6.4375 1.4375 C-7.63246094 1.51871094 -8.82742187 1.59992187 -10.05859375 1.68359375 C-12.88570244 1.67656114 -12.88570244 1.67656114 -14 3 C-15.70445187 3.18577936 -17.41426114 3.32329536 -19.125 3.4375 C-24.75336828 3.91139111 -29.74456385 4.60377762 -34.625 7.625 C-37.32767606 9.18970719 -38.93007415 9.2631365 -42 9 C-42 9.99 -42 10.98 -42 12 C-40.68 12.66 -39.36 13.32 -38 14 C-40.97 13.67 -43.94 13.34 -47 13 C-45.51060783 8.53182348 -42.68074369 7.61159627 -38.61328125 5.49609375 C-26.26844469 0.38466412 -13.21930165 -0.6564067 0 0 Z " fill="#FACE97" transform="translate(85,32)"/>
<path d="M0 0 C1.32 0 2.64 0 4 0 C4 0.66 4 1.32 4 2 C3.01 2.66 2.02 3.32 1 4 C0.63583953 6.43693311 0.63583953 6.43693311 0.8125 9.125 C0.83957031 10.03507812 0.86664062 10.94515625 0.89453125 11.8828125 C0.92933594 12.58148438 0.96414062 13.28015625 1 14 C1.66 14 2.32 14 3 14 C3 14.99 3 15.98 3 17 C1.00045254 17.04254356 -1.00041636 17.04080783 -3 17 C-3.33 16.67 -3.66 16.34 -4 16 C-4.66 16 -5.32 16 -6 16 C-6.28571429 7.42857143 -6.28571429 7.42857143 -4 4 C-3.34 4 -2.68 4 -2 4 C-1.34 2.68 -0.68 1.36 0 0 Z " fill="#E9B9C3" transform="translate(12,49)"/>
<path d="M0 0 C0.2475 0.639375 0.495 1.27875 0.75 1.9375 C1.81562433 4.18741541 1.81562433 4.18741541 4.125 4.75 C4.74375 4.8325 5.3625 4.915 6 5 C5 8 5 8 3 9 C1.86649466 11.01669827 1.86649466 11.01669827 1 13 C-0.65 13 -2.3 13 -4 13 C-5 5.375 -5 5.375 -5 2 C-4.360625 1.855625 -3.72125 1.71125 -3.0625 1.5625 C-1.02454854 1.18992819 -1.02454854 1.18992819 0 0 Z " fill="#CEC498" transform="translate(48,69)"/>
<path d="M0 0 C1.5 1.1875 1.5 1.1875 3 3 C3.1875 5.6875 3.1875 5.6875 3 8 C-0.26752213 9.94792741 -2.65133511 10.22738557 -6.4296875 10.16015625 C-7.99396484 10.1437207 -7.99396484 10.1437207 -9.58984375 10.12695312 C-10.67394531 10.10568359 -11.75804688 10.08441406 -12.875 10.0625 C-21.9912664 9.8058478 -21.9912664 9.8058478 -31 11 C-30.67 10.01 -30.34 9.02 -30 8 C-20.1 8 -10.2 8 0 8 C0 5.36 0 2.72 0 0 Z " fill="#83A578" transform="translate(88,41)"/>
<path d="M0 0 C1.25167969 0.00902344 2.50335938 0.01804687 3.79296875 0.02734375 C6.8621801 0.05077284 9.93098756 0.08357853 13 0.125 C13 0.455 13 0.785 13 1.125 C4.42 1.125 -4.16 1.125 -13 1.125 C-13.33 2.445 -13.66 3.765 -14 5.125 C-16.64 4.795 -19.28 4.465 -22 4.125 C-22 3.465 -22 2.805 -22 2.125 C-14.65226277 -0.20790657 -7.66160781 -0.10517519 0 0 Z " fill="#E8A69A" transform="translate(73,23.875)"/>
<path d="M0 0 C0.66 0.33 1.32 0.66 2 1 C2 1.99 2 2.98 2 4 C3.98 4 5.96 4 8 4 C7.67 4.66 7.34 5.32 7 6 C6.34 6 5.68 6 5 6 C5.19471111 7.94999129 5.19471111 7.94999129 6 10 C7.9837767 11.28436734 7.9837767 11.28436734 10 12 C9.67 12.99 9.34 13.98 9 15 C8.01 14.34 7.02 13.68 6 13 C6 12.34 6 11.68 6 11 C5.34 11 4.68 11 4 11 C2.67578125 9.609375 2.67578125 9.609375 1.3125 7.75 C0.85488281 7.14671875 0.39726563 6.5434375 -0.07421875 5.921875 C-1 4 -1 4 -0.64453125 1.765625 C-0.43183594 1.18296875 -0.21914062 0.6003125 0 0 Z " fill="#D3AFB5" transform="translate(7,62)"/>
<path d="M0 0 C0.66 0.33 1.32 0.66 2 1 C0.625 3.5 0.625 3.5 -1 6 C-1.66 6 -2.32 6 -3 6 C-3 7.98 -3 9.96 -3 12 C-4.32 12.33 -5.64 12.66 -7 13 C-8 10 -8 10 -6.875 7.0625 C-4.92360435 3.87522044 -3.03577721 2.13324885 0 0 Z " fill="#D98F85" transform="translate(31,37)"/>
<path d="M0 0 C0.99 0.99 1.98 1.98 3 3 C2.690625 3.825 2.38125 4.65 2.0625 5.5 C0.88122417 9.39126155 0.41775832 12.96166953 0 17 C-2.34402262 13.33746465 -2.2947685 10.27414327 -2 6 C-1 2.5625 -1 2.5625 0 0 Z " fill="#C2A2A7" transform="translate(6,48)"/>
<path d="M0 0 C0.66 0 1.32 0 2 0 C2.33 1.32 2.66 2.64 3 4 C3.66 4 4.32 4 5 4 C5.33 4.66 5.66 5.32 6 6 C6.99 6.66 7.98 7.32 9 8 C6.69 8.33 4.38 8.66 2 9 C0.4375 6.1875 0.4375 6.1875 -1 3 C-0.67 2.01 -0.34 1.02 0 0 Z " fill="#94A67C" transform="translate(47,45)"/>
<path d="M0 0 C1.32 0 2.64 0 4 0 C4 0.66 4 1.32 4 2 C3.01 2.66 2.02 3.32 1 4 C0.27034634 6.56282742 0.27034634 6.56282742 0 9 C-0.99 9 -1.98 9 -3 9 C-2.25 2.25 -2.25 2.25 0 0 Z " fill="#F9E5E7" transform="translate(12,49)"/>
<path d="M0 0 C2.875 -0.1875 2.875 -0.1875 6 0 C6.66 0.99 7.32 1.98 8 3 C7.21625 3.28875 6.4325 3.5775 5.625 3.875 C2.90328368 4.84912254 2.90328368 4.84912254 1 7 C-1 4 -1 4 -0.625 1.8125 C-0.41875 1.214375 -0.2125 0.61625 0 0 Z " fill="#E0B5BF" transform="translate(8,46)"/>
<path d="M0 0 C0.33 0.66 0.66 1.32 1 2 C-0.36125 2.61875 -0.36125 2.61875 -1.75 3.25 C-4.79665618 4.89050718 -6.71126806 6.44718361 -9 9 C-9.99 8.67 -10.98 8.34 -12 8 C-8.25572134 3.80186938 -5.1596937 1.92223883 0 0 Z " fill="#F09C9D" transform="translate(37,43)"/>
<path d="M0 0 C0.33 0.99 0.66 1.98 1 3 C1.99 3 2.98 3 4 3 C4.33 3.99 4.66 4.98 5 6 C3.71034824 7.37562854 2.37310707 8.70766393 1 10 C0.34 10 -0.32 10 -1 10 C-0.67 6.7 -0.34 3.4 0 0 Z " fill="#CDC3A3" transform="translate(21,32)"/>
<path d="M0 0 C2 0.66666667 4 1.33333333 6 2 C5.67 4.31 5.34 6.62 5 9 C2.5 6.75 2.5 6.75 0 4 C0 2.68 0 1.36 0 0 Z " fill="#D5CDA5" transform="translate(11,35)"/>
<path d="M0 0 C1.5 1.1875 1.5 1.1875 3 3 C3.1875 5.6875 3.1875 5.6875 3 8 C1.02 8.99 1.02 8.99 -1 10 C-1.66 9.34 -2.32 8.68 -3 8 C-2.01 8 -1.02 8 0 8 C0 5.36 0 2.72 0 0 Z " fill="#818C74" transform="translate(88,41)"/>
<path d="M0 0 C1.65 0.99 3.3 1.98 5 3 C3.25 6.875 3.25 6.875 1 8 C0.67 5.36 0.34 2.72 0 0 Z " fill="#B78881" transform="translate(86,24)"/>
<path d="M0 0 C2.97 0.495 2.97 0.495 6 1 C6 1.99 6 2.98 6 4 C4.02 4 2.04 4 0 4 C0 2.68 0 1.36 0 0 Z " fill="#F4CCD4" transform="translate(9,62)"/>
<path d="M0 0 C-0.33 0.99 -0.66 1.98 -1 3 C-3.64 2.67 -6.28 2.34 -9 2 C-9 1.34 -9 0.68 -9 0 C-5.62182575 -0.84454356 -3.32534757 -1.10844919 0 0 Z " fill="#E4938A" transform="translate(60,26)"/>
<path d="M0 0 C0.33 1.32 0.66 2.64 1 4 C-0.65 5.32 -2.3 6.64 -4 8 C-3.67 6.35 -3.34 4.7 -3 3 C-2.01 2.67 -1.02 2.34 0 2 C0 1.34 0 0.68 0 0 Z " fill="#E9BAC3" transform="translate(16,49)"/>
<path d="M0 0 C1.32 0 2.64 0 4 0 C4 0.66 4 1.32 4 2 C5.32 2.66 6.64 3.32 8 4 C5.03 3.67 2.06 3.34 -1 3 C-0.67 2.01 -0.34 1.02 0 0 Z " fill="#F3C8A2" transform="translate(39,42)"/>
<path d="M0 0 C0.99 0.33 1.98 0.66 3 1 C1.71389765 3.5722047 0.66606019 4.00974907 -2 5 C-4.25 4.625 -4.25 4.625 -6 4 C-3.1875 1.9375 -3.1875 1.9375 0 0 Z " fill="#D79086" transform="translate(40,31)"/>
</svg>
